<?xml version="1.0" encoding="UTF-8"?>
<!DOCTYPE svg PUBLIC "-//W3C//DTD SVG 1.1//EN" "http://www.w3.org/Graphics/SVG/1.1/DTD/svg11.dtd">
<!-- Creator: CorelDRAW 2020 (64-Bit) -->
<svg xmlns="http://www.w3.org/2000/svg" xml:space="preserve" width="60mm" height="60mm" version="1.1" style="shape-rendering:geometricPrecision; text-rendering:geometricPrecision; image-rendering:optimizeQuality; fill-rule:evenodd; clip-rule:evenodd"
viewBox="0 0 6000 6000"
 xmlns:xlink="http://www.w3.org/1999/xlink"
 xmlns:xodm="http://www.corel.com/coreldraw/odm/2003">
 <defs>
  <style type="text/css">
   <![CDATA[
    .fil1 {fill:#FEFEFE}
    .fil2 {fill:#D33438}
    .fil0 {fill:#333656;fill-rule:nonzero}
   ]]>
  </style>
 </defs>
 <g id="Capa_x0020_1">
  <metadata id="CorelCorpID_0Corel-Layer"/>
  <path class="fil0" d="M3432.56 4264.31l-8.02 0 0 -0.51c-172.6,-2.64 -410.49,-94.65 -606.52,-262.29 -188.73,-161.04 -278.41,-457.85 -278.41,-769.43l0 -1578.27 14.55 0c162.92,0 398.49,149.57 398.49,393.16l1.49 1205.59c0,338.09 156.48,525.01 478.42,525.01l-8.02 0 0 486.23c2.55,0.06 5.47,0.51 8.02,0.51zm-406.28 -1902.6l398.26 0 0 141.91c0,211.62 -178.24,344.83 -327.21,344.83l-71.05 0 0 -486.74zm-31.91 -1748.38c-1321.38,0 -2392.5,1071.03 -2392.5,2392.35 0,1321.29 1071.12,2392.34 2392.5,2392.34 1321.38,0 2392.43,-1071.05 2392.43,-2392.34 0,-1321.32 -1071.05,-2392.35 -2392.43,-2392.35z"/>
  <path class="fil1" d="M3424.48 4259.45l0.06 -481.88c-537.15,-23.38 -470.47,-502.9 -470.95,-948.13l-0.88 -745.32c-0.18,-253.22 -164.29,-422.52 -410.83,-431.82 0.1,351.66 -15.93,1468.41 9.14,1731.08 23.81,249.57 93.33,440.03 259.22,603.5 123.97,122.18 372.84,263.09 614.24,272.57z"/>
  <path class="fil2" d="M3026.27 2676.33c0,-81.27 0,-197.95 0,-256.28 0,-58.33 0,-58.33 0,-58.33 0,0 0,0 66.51,0 66.5,0 199.5,0 266,0 66.49,0 66.49,0 66.49,0 0,0 0,0 0,22.1 0,22.07 0,66.26 -0.14,94.24 -0.16,27.98 -0.47,39.78 -1.1,50.27 -0.65,10.47 -1.65,19.63 -2.98,28.68 -1.34,9.03 -3.01,17.98 -5.3,27.58 -2.27,9.58 -5.12,19.83 -8.55,30.1 -3.42,10.26 -7.4,20.56 -11.82,30.57 -4.44,10 -9.32,19.73 -14,28.23 -4.68,8.49 -9.15,15.73 -14.18,23.22 -5.07,7.48 -10.69,15.17 -16.33,22.34 -5.66,7.15 -11.35,13.76 -17.14,20.06 -5.82,6.3 -11.77,12.26 -18.99,18.87 -7.23,6.61 -15.74,13.87 -23.76,20.17 -8,6.29 -15.5,11.66 -24.71,17.51 -9.22,5.84 -20.11,12.19 -31.78,18.1 -11.69,5.89 -24.14,11.37 -35.07,15.6 -10.97,4.22 -20.37,7.2 -32.39,10.09 -12.05,2.85 -26.67,5.59 -38.7,7.24 -12.03,1.62 -21.44,2.15 -30.61,2.41 -9.16,0.25 -18.04,0.25 -28.23,0.25 -10.21,0 -21.72,0 -29.13,0 -7.43,0 -10.77,0 -12.42,0 -1.67,0 -1.67,0 -1.67,0 0,0 0,0 0,-22.94 0,-22.93 0,-68.82 0,-150.08z"/>
 </g>
</svg>
