<?xml version="1.0" encoding="UTF-8"?>
<!DOCTYPE svg PUBLIC "-//W3C//DTD SVG 1.1//EN" "http://www.w3.org/Graphics/SVG/1.1/DTD/svg11.dtd">
<!-- Creator: CorelDRAW 2020 (64-Bit) -->
<svg xmlns="http://www.w3.org/2000/svg" xml:space="preserve" width="60mm" height="60mm" version="1.1" style="shape-rendering:geometricPrecision; text-rendering:geometricPrecision; image-rendering:optimizeQuality; fill-rule:evenodd; clip-rule:evenodd"
viewBox="0 0 6000 6000"
 xmlns:xlink="http://www.w3.org/1999/xlink"
 xmlns:xodm="http://www.corel.com/coreldraw/odm/2003">
 <defs>
  <style type="text/css">
   <![CDATA[
    .fil0 {fill:#333656;fill-rule:nonzero}
   ]]>
  </style>
 </defs>
 <g id="Capa_x0020_1">
  <metadata id="CorelCorpID_0Corel-Layer"/>
  <path class="fil0" d="M3432.56 4264.31l-8.02 0 0 -0.51c-172.6,-2.64 -410.49,-94.65 -606.52,-262.29 -188.73,-161.04 -278.41,-457.85 -278.41,-769.43l0 -1578.27 14.55 0c162.92,0 398.49,149.57 398.49,393.16l1.49 1205.59c0,338.09 156.48,525.01 478.42,525.01l-8.02 0 0 486.23c2.55,0.06 5.47,0.51 8.02,0.51zm-406.28 -1902.6l398.26 0 0 141.91c0,211.62 -178.24,344.83 -327.21,344.83l-71.05 0 0 -486.74zm-31.91 -1748.38c-1321.38,0 -2392.5,1071.03 -2392.5,2392.35 0,1321.29 1071.12,2392.34 2392.5,2392.34 1321.38,0 2392.43,-1071.05 2392.43,-2392.34 0,-1321.32 -1071.05,-2392.35 -2392.43,-2392.35z"/>
 </g>
</svg>
