<?xml version="1.0" encoding="UTF-8"?>
<!DOCTYPE svg PUBLIC "-//W3C//DTD SVG 1.1//EN" "http://www.w3.org/Graphics/SVG/1.1/DTD/svg11.dtd">
<!-- Creator: CorelDRAW 2020 (64-Bit) -->
<svg xmlns="http://www.w3.org/2000/svg" xml:space="preserve" width="170mm" height="60mm" version="1.1" style="shape-rendering:geometricPrecision; text-rendering:geometricPrecision; image-rendering:optimizeQuality; fill-rule:evenodd; clip-rule:evenodd"
viewBox="0 0 17000 6000"
 xmlns:xlink="http://www.w3.org/1999/xlink"
 xmlns:xodm="http://www.corel.com/coreldraw/odm/2003">
 <defs>
  <style type="text/css">
   <![CDATA[
    .fil0 {fill:#333656;fill-rule:nonzero}
    .fil1 {fill:#323453;fill-rule:nonzero}
    .fil2 {fill:#323453;fill-rule:nonzero}
   ]]>
  </style>
 </defs>
 <g id="Capa_x0020_1">
  <metadata id="CorelCorpID_0Corel-Layer"/>
  <path class="fil0" d="M3375.93 4213.52l-8.02 0 0 -0.51c-172.6,-2.64 -410.49,-94.65 -606.52,-262.29 -188.73,-161.04 -278.41,-457.85 -278.41,-769.43l0 -1578.27 14.55 0c162.92,0 398.49,149.57 398.49,393.16l1.49 1205.59c0,338.09 156.48,525.01 478.42,525.01l-8.02 0 0 486.23c2.55,0.06 5.47,0.51 8.02,0.51zm-406.28 -1902.6l398.26 0 0 141.91c0,211.62 -178.24,344.83 -327.21,344.83l-71.05 0 0 -486.74zm-31.91 -1748.38c-1321.38,0 -2392.5,1071.03 -2392.5,2392.35 0,1321.29 1071.12,2392.34 2392.5,2392.34 1321.38,0 2392.43,-1071.05 2392.43,-2392.34 0,-1321.32 -1071.05,-2392.35 -2392.43,-2392.35z"/>
  <path class="fil1" d="M7175.67 3717.25c-33.13,-34.43 -49.68,-75.62 -49.68,-123.55l0 -1534.9c0,-47.95 16.55,-88.56 49.68,-121.69 34.52,-33.23 75.59,-49.78 123.52,-49.78 46.63,0 87.14,16.55 121.57,49.78 33.23,33.13 49.78,73.74 49.78,121.69l0 1534.9c0,47.93 -16.55,89.12 -49.78,123.55 -34.43,33.23 -74.94,49.66 -121.57,49.66 -47.93,0 -89,-16.43 -123.52,-49.66zm259.79 -2054.66c-38.01,38.01 -83.53,56.97 -136.27,56.97 -54.13,0 -100.11,-18.96 -138.13,-56.97 -38.13,-38.14 -57.18,-83.66 -57.18,-136.49 0,-53.92 19.05,-100.11 57.18,-138.13 38.02,-38.04 84,-57.09 138.13,-57.09 52.74,0 98.26,19.05 136.27,57.09 38.14,38.02 57.19,84.21 57.19,138.13 0,52.83 -19.05,98.35 -57.19,136.49z"/>
  <path class="fil1" d="M8698.19 1881.89c211.34,0 391.95,74.85 541.75,224.62 149.89,150.01 224.96,330.63 224.96,541.84l0 945.35c0,47.96 -17.32,89.12 -51.76,123.55 -33.1,33.23 -73.64,49.78 -121.57,49.78 -47.92,0 -88.56,-16.55 -121.57,-49.78 -33.23,-34.43 -49.9,-75.59 -49.9,-123.55l0 -945.35c0,-116.66 -41.72,-216.21 -125.28,-298.48 -82.36,-82.23 -181.14,-123.52 -296.63,-123.52l-12.97 0c-116.66,0 -216.22,41.29 -298.48,123.52 -82.36,82.27 -123.52,181.82 -123.52,298.48l0 945.35c0,47.96 -16.46,89.12 -49.69,123.55 -34.43,33.23 -74.94,49.78 -121.57,49.78 -47.92,0 -89.12,-16.55 -123.52,-49.78 -33.13,-34.43 -49.81,-75.59 -49.81,-123.55l0 -1540.46c0,-46.72 16.68,-87.26 49.81,-121.66 34.4,-33.14 75.6,-49.69 123.52,-49.69 88.47,0 143.68,43.57 165.79,130.72 128.99,-87.15 271.5,-130.72 427.47,-130.72l12.97 0z"/>
  <path class="fil1" d="M10161.73 2655.77l855.02 0c-1.17,-115.46 -42.36,-214.93 -123.42,-298.49 -83.53,-82.35 -182.56,-123.51 -296.72,-123.51l-13.1 0c-116.54,0 -216.12,41.16 -298.36,123.51 -82.26,82.27 -123.42,181.17 -123.42,296.63l0 1.86zm1201.46 -1.86c0,62.66 -16.03,120.4 -47.92,173.21 -66.36,114.28 -165.18,171.38 -296.76,171.38l-856.78 1.85c0,116.66 41.16,216.22 123.42,298.58 82.24,82.35 181.82,123.42 298.36,123.42l13.1 0c142.47,0 256.11,-58.27 340.84,-175.05 49.26,-67.54 113.73,-87.15 193.59,-59.05 55.24,18.53 91.4,55.34 108.6,110.68 17.23,56.54 8.62,108.17 -25.69,154.8 -153.5,208.71 -359.38,313.3 -617.34,313.3l-13.1 0c-209.79,0 -389.76,-74.39 -539.77,-223.1 -148.6,-147.39 -224.19,-326.03 -226.57,-536.17l0 -353.85c0,-211.21 74.95,-391.18 224.71,-539.99 149.92,-149.89 330.54,-224.74 541.63,-224.74l13.1 0c213.84,0 395.44,76.27 545.55,228.45 71.14,72.56 125.8,155.45 163.84,248.83 20.91,50.3 35.61,102.61 44.31,156.74 8.53,42.92 12.88,64.38 12.88,64.38l0 66.33z"/>
  <path class="fil1" d="M13407.27 2655.77l855.05 0c-1.29,-115.46 -42.36,-214.93 -123.42,-298.49 -83.56,-82.35 -182.47,-123.51 -296.76,-123.51l-12.84 0c-116.67,0 -216.34,41.16 -298.61,123.51 -82.23,82.27 -123.42,181.17 -123.42,296.63l0 1.86zm1201.58 -1.86c0,62.66 -16.02,120.4 -47.95,173.21 -66.33,114.28 -165.24,171.38 -296.72,171.38l-856.91 1.85c0,116.66 41.19,216.22 123.42,298.58 82.27,82.35 181.94,123.42 298.61,123.42l12.84 0c142.51,0 256.12,-58.27 340.98,-175.05 49.13,-67.54 113.63,-87.15 193.58,-59.05 55.24,18.53 91.4,55.34 108.6,110.68 17.23,56.54 8.5,108.17 -25.81,154.8 -153.6,208.71 -359.25,313.3 -617.35,313.3l-12.84 0c-210.05,0 -390.01,-74.39 -539.9,-223.1 -148.69,-147.39 -224.28,-326.03 -226.69,-536.17l0 -353.85c0,-211.21 74.95,-391.18 224.96,-539.99 149.67,-149.89 330.29,-224.74 541.63,-224.74l12.84 0c213.97,0 395.57,76.27 545.55,228.45 71.15,72.56 125.84,155.45 163.97,248.83 20.91,50.3 35.61,102.61 44.22,156.74 8.62,42.92 12.97,64.38 12.97,64.38l0 66.33z"/>
  <path class="fil1" d="M16166.36 3068.56c57.62,0 104.34,23.84 139.98,71.89 34.43,46.75 42.36,97.74 23.96,152.95 -46.85,138.77 -130.19,251.85 -250.65,338.9 -121.48,89.77 -257.97,134.64 -409.06,134.64l-11.12 0c-192.81,0 -357.43,-68.09 -493.8,-204.58 -136.39,-136.27 -204.6,-300.77 -204.6,-493.8l0 -484.65c0,-191.64 68.21,-355.7 204.6,-491.97 136.37,-136.4 300.99,-204.58 493.8,-204.58l11.12 0c151.09,0 287.58,44.22 409.06,132.69 120.46,87.26 203.8,200.87 250.65,340.85 18.4,54.16 10.47,105.02 -23.96,152.94 -35.64,46.76 -82.36,70.07 -139.98,70.07 -82.36,0 -136.4,-37.37 -162.21,-112.43 -23.44,-71.15 -65.81,-128.99 -127.13,-173.21 -61.55,-44.22 -130.19,-66.36 -206.43,-66.36l-11.12 0c-98.26,0 -181.82,34.43 -250.43,103.29 -68.87,68.74 -103.17,151.62 -103.17,248.71l0 484.65c0,98.26 34.3,181.82 103.17,250.65 68.61,68.87 152.17,103.17 250.43,103.17l11.12 0c76.24,0 144.88,-22.76 206.43,-68.3 61.32,-44.13 103.69,-101.2 127.13,-171.35 25.81,-76.06 79.85,-114.17 162.21,-114.17z"/>
  <path class="fil1" d="M6717.85 3401.35c-291.63,0 -433.58,-176.57 -433.58,-483.01l-1.3 -1422.26c0,-220.82 -213.41,-342.73 -361.01,-342.73l-45.42 0 0 1739.29c0,282.24 97.39,530.39 268.31,676.7 180.27,153.93 416.13,217.45 573,217.45l57.84 0 0 -385.44 -57.84 0z"/>
  <path class="fil1" d="M12646.33 3401.35c-291.63,0 -433.46,-176.57 -433.46,-483.01l-1.2 -1422.26c0,-220.82 -213.62,-342.73 -361.35,-342.73l-64.7 0 0 1739.29c0,282.24 107.09,530.39 278.01,676.7 180.28,153.93 425.83,217.45 582.7,217.45l38.45 0 0 -385.44 -38.45 0z"/>
  <path class="fil1" d="M12684.78 1924.1l0 60.47c0,199.23 -182.9,389.11 -323.13,389.11l-62.31 0 0 -449.58 385.44 0z"/>
  <path class="fil1" d="M6045.94 4668.07c49.35,0.21 89.68,19.82 120.93,58.48 31.71,39.22 42.49,83.99 32.14,134.54 -7.41,36.72 -25.94,67.01 -55.46,90.64 -29.4,23.31 -62.84,35.2 -100.54,35.2l-0.43 0c-35.08,0 -66.58,-10.81 -94.68,-32.27 -27.33,-20.91 -45.98,-47.93 -55.89,-80.94 -3.37,-11.64 -1.73,-22.2 5.34,-31.89 6.88,-9.48 16.12,-14.39 28.01,-14.39 17.54,0 28.53,8.27 33.32,24.82 5.46,18.53 15.81,33.66 31.06,45.43 15.47,12.1 33.1,18.18 52.84,18.18l1.51 0c19.95,0 37.79,-5.86 53.61,-17.84 15.99,-11.99 26.58,-27.58 31.8,-46.51 7.41,-28.87 2.41,-54.69 -15.25,-77.69 -16.89,-22.42 -39.44,-33.97 -67.23,-34.74 -39.96,-0.65 -73.83,-14.92 -101.62,-42.49 -28.23,-27.67 -42.28,-61.33 -42.28,-100.89l0 -10.43c0,-39.78 13.96,-73.65 41.84,-101.75 27.55,-27.88 60.99,-41.72 100.21,-41.72l2.19 0c30.82,0 58.61,8.93 83.22,27.24 24.4,18.06 41.41,41.38 50.98,70.03 3.71,11.21 2.07,21.9 -5.12,31.68 -6.95,9.7 -16.34,14.52 -28.1,14.52l-0.43 0c-16.46,0 -27.33,-7.75 -32.46,-23.32 -4.91,-14.6 -13.52,-26.49 -25.94,-35.51 -12.63,-9.48 -26.59,-14.05 -42.15,-14.05l-2.19 0c-19.92,0 -36.9,7.07 -50.64,21.46 -14.05,14.05 -21.13,31.13 -21.13,51.42l0 11.42c0,20.04 7.08,36.81 21.47,50.77 14.05,13.74 31.03,20.6 51.07,20.6z"/>
  <path class="fil1" d="M6485.76 4536.77c-17.32,17.32 -25.91,37.92 -25.91,62.22l0 230.73c0,24.18 8.59,44.87 25.91,62.07 17.01,17.23 37.8,25.94 62.1,25.94 24.18,0 44.87,-8.71 62.19,-25.94 17.23,-17.2 25.81,-37.89 25.81,-62.07l0 -230.73c0,-24.3 -8.58,-44.9 -25.81,-62.22 -17.32,-16.99 -38.01,-25.48 -62.19,-25.48 -24.3,0 -45.09,8.49 -62.1,25.48zm-48.79 403.84c-30.94,-30.51 -46.32,-67.53 -46.32,-110.89l0 -230.73c0,-43.14 15.38,-80.2 46.32,-111.01 30.51,-30.51 67.53,-45.86 110.89,-45.86 43.48,0 80.41,15.35 110.89,45.86 30.85,30.81 46.32,67.87 46.32,111.01l0 230.73c0,43.36 -15.47,80.38 -46.32,110.89 -30.48,30.82 -67.41,46.29 -110.89,46.29 -43.36,0 -80.38,-15.47 -110.89,-46.29z"/>
  <path class="fil1" d="M7141.49 4917.7c9.57,0 17.75,3.36 24.39,9.91 6.86,6.85 10.47,15.04 10.47,24.52 0,9.57 -3.61,17.75 -10.47,24.73 -6.64,6.64 -14.82,10.01 -24.39,10.01l-199.58 0c-9.69,0 -17.97,-3.37 -24.86,-10.01 -6.63,-6.98 -10,-15.16 -10,-24.73l0 -468.97c0,-9.48 3.37,-17.66 10,-24.43 6.89,-6.85 15.17,-10.34 24.86,-10.34 9.27,0 17.42,3.49 24.27,10.34 6.67,6.77 9.92,14.95 9.92,24.43l0 434.54 165.39 0z"/>
  <path class="fil1" d="M7391.61 4935.82c-28.65,-31.25 -42.92,-68.3 -42.92,-110.89l0 -348.38c0,-9.7 3.4,-17.97 10.04,-24.83 6.85,-6.67 15.13,-9.91 24.73,-9.91 9.45,0 17.51,3.24 24.49,9.91 6.54,6.86 9.91,15.13 9.91,24.83l0 349.8c0,22.64 7.19,42.71 21.89,59.91 14.52,17.76 32.8,27.89 55.03,30.73 26.37,3.15 49.47,-3.93 69.51,-21.46 19.7,-17.54 29.61,-39.44 29.61,-65.81l0 -353.17c0,-9.7 3.4,-17.97 10.04,-24.83 6.64,-6.67 14.7,-9.91 24.39,-9.91 9.58,0 17.64,3.24 24.4,9.91 6.86,6.86 10.34,15.13 10.34,24.83l0 353.17c0,44.56 -16.33,82.48 -48.79,113.51 -32.36,31.04 -70.93,45.43 -115.79,43.24 -42.15,-2.07 -77.79,-18.84 -106.88,-50.65z"/>
  <path class="fil1" d="M8095.85 4846.7c11.55,0 20.94,4.79 28.13,14.49 6.86,9.35 8.5,19.48 4.79,30.6 -9.48,27.88 -26.16,50.42 -50.33,68.09 -24.4,17.88 -51.76,27.02 -82.14,27.02l-2.17 0c-38.78,0 -71.7,-13.62 -99.15,-41.07 -27.33,-27.36 -40.95,-60.46 -40.95,-99.13l0 -264.82c0,-38.35 13.62,-71.27 40.95,-98.72 27.45,-27.33 60.37,-41.07 99.15,-41.07l2.17 0c30.38,0 57.74,8.95 82.14,26.59 24.17,17.66 40.85,40.42 50.33,68.52 3.71,10.78 2.07,21.15 -4.79,30.72 -7.19,9.36 -16.58,13.96 -28.13,13.96 -16.55,0 -27.45,-7.53 -32.67,-22.45 -4.57,-14.39 -13.06,-25.94 -25.38,-34.77 -12.29,-8.92 -26.25,-13.37 -41.5,-13.37l-2.17 0c-19.85,0 -36.49,6.86 -50.33,20.78 -13.74,13.62 -20.6,30.3 -20.6,49.81l0 264.82c0,19.71 6.86,36.38 20.6,50.31 13.84,13.74 30.48,20.72 50.33,20.72l2.17 0c15.25,0 29.21,-4.7 41.5,-13.62 12.32,-8.96 20.81,-20.38 25.38,-34.55 5.22,-15.23 16.12,-22.86 32.67,-22.86z"/>
  <path class="fil1" d="M8335.23 4976.86c-6.64,-6.88 -10.04,-15.16 -10.04,-24.73l0 -475.61c0,-9.6 3.4,-17.66 10.04,-24.43 6.86,-6.64 15.13,-9.91 24.83,-9.91 9.26,0 17.41,3.27 24.3,9.91 6.64,6.77 10.13,14.83 10.13,24.43l0 475.61c0,9.57 -3.49,17.85 -10.13,24.73 -6.89,6.64 -15.04,10.01 -24.3,10.01 -9.7,0 -17.97,-3.37 -24.83,-10.01z"/>
  <path class="fil1" d="M8691.49 4536.77c-17.32,17.32 -25.94,37.92 -25.94,62.22l0 230.73c0,24.18 8.62,44.87 25.94,62.07 16.98,17.23 37.7,25.94 62.1,25.94 24.18,0 44.87,-8.71 62.19,-25.94 17.11,-17.2 25.81,-37.89 25.81,-62.07l0 -230.73c0,-24.3 -8.7,-44.9 -25.81,-62.22 -17.32,-16.99 -38.01,-25.48 -62.19,-25.48 -24.4,0 -45.12,8.49 -62.1,25.48zm-48.79 403.84c-30.85,-30.51 -46.32,-67.53 -46.32,-110.89l0 -230.73c0,-43.14 15.47,-80.2 46.32,-111.01 30.48,-30.51 67.53,-45.86 110.89,-45.86 43.45,0 80.38,15.35 110.89,45.86 30.81,30.81 46.19,67.87 46.19,111.01l0 230.73c0,43.36 -15.38,80.38 -46.19,110.89 -30.51,30.82 -67.44,46.29 -110.89,46.29 -43.36,0 -80.41,-15.47 -110.89,-46.29z"/>
  <path class="fil1" d="M9418.95 4953.95c0,1.54 -0.09,2.84 -0.43,4.04l0 0.78c-2.19,11.08 -8.28,19.05 -17.97,23.96 -8.71,4.57 -17.45,5.22 -26.38,2.28 -9.14,-2.93 -15.77,-8.7 -20.25,-17.01l-171.91 -344.65 0 328.75c0,9.6 -3.36,17.75 -10.13,24.42 -6.85,6.73 -15.04,10.35 -24.39,10.35 -9.48,0 -17.88,-3.62 -24.74,-10.35 -6.76,-6.67 -10,-14.82 -10,-24.42l0 -475.61c0,-9.57 3.24,-17.63 10,-24.4 6.86,-6.97 15.26,-10.34 24.74,-10.34 10.9,0 19.92,4.45 27.02,13.28l0 0.43c0.99,0.99 1.85,2.28 2.59,4.05 0.22,0 0.46,0.09 0.77,0.43 0,0.34 0.13,0.65 0.34,0.65l172 344.8 0 -328.9c0,-9.57 3.28,-17.63 9.91,-24.4 6.64,-6.97 14.83,-10.34 24.52,-10.34 9.58,0 17.64,3.37 24.4,10.34 6.85,6.77 10.34,14.83 10.34,24.4l0 475.61 0 -1.08c0,0 -0.21,0.98 -0.43,2.93z"/>
  <path class="fil1" d="M9849.54 4917.7c9.6,0 17.75,3.36 24.42,9.91 6.86,6.85 10.35,15.04 10.35,24.52 0,9.57 -3.49,17.75 -10.35,24.73 -6.67,6.64 -14.82,10.01 -24.42,10.01l-182.26 0c-9.69,0 -17.97,-3.37 -24.82,-10.01 -6.64,-6.98 -10.04,-15.16 -10.04,-24.73l0 -462.67c0,-9.36 3.4,-17.54 10.04,-24.4 6.85,-6.64 15.13,-10 24.82,-10l182.26 0c9.6,0 17.75,3.36 24.42,10 6.86,6.86 10.35,15.04 10.35,24.4 0,9.6 -3.49,17.75 -10.35,24.42 -6.67,6.86 -14.82,10.44 -24.42,10.44l-147.92 0 0 143.38 125.71 0c9.58,0 17.97,3.36 24.83,10 6.64,6.67 10.04,14.82 10.04,24.43 0,9.57 -3.4,17.75 -10.04,24.39 -6.86,6.86 -15.25,10.44 -24.83,10.44l-125.71 0 0 180.74 147.92 0z"/>
  <path class="fil1" d="M10219.44 4668.07c49.35,0.21 89.65,19.82 121.02,58.48 31.81,39.22 42.49,83.99 32.14,134.54 -7.41,36.72 -26.06,67.01 -55.45,90.64 -29.43,23.31 -62.88,35.2 -100.67,35.2l-0.31 0c-35.08,0 -66.67,-10.81 -94.68,-32.27 -27.33,-20.91 -45.98,-47.93 -55.89,-80.94 -3.37,-11.64 -1.73,-22.2 5.25,-31.89 6.85,-9.48 16.21,-14.39 28.1,-14.39 17.42,0 28.53,8.27 33.23,24.82 5.43,18.53 15.78,33.66 31.03,45.43 15.59,12.1 33.13,18.18 52.96,18.18l1.42 0c20.04,0 37.89,-5.86 53.7,-17.84 15.99,-11.99 26.59,-27.58 31.8,-46.51 7.29,-28.87 2.29,-54.69 -15.25,-77.69 -16.89,-22.42 -39.43,-33.97 -67.22,-34.74 -39.96,-0.65 -73.84,-14.92 -101.63,-42.49 -28.22,-27.67 -42.27,-61.33 -42.27,-100.89l0 -10.43c0,-39.78 13.95,-73.65 41.84,-101.75 27.54,-27.88 60.99,-41.72 100.11,-41.72l2.29 0c30.81,0 58.6,8.93 83.12,27.24 24.49,18.06 41.51,41.38 51.08,70.03 3.83,11.21 2.07,21.9 -5.13,31.68 -6.85,9.7 -16.33,14.52 -28.1,14.52l-0.43 0c-16.55,0 -27.33,-7.75 -32.46,-23.32 -5,-14.6 -13.61,-26.49 -25.93,-35.51 -12.63,-9.48 -26.59,-14.05 -42.15,-14.05l-2.29 0c-19.82,0 -36.84,7.07 -50.55,21.46 -14.05,14.05 -21.03,31.13 -21.03,51.42l0 11.42c0,20.04 6.98,36.81 21.37,50.77 14.14,13.74 31.03,20.6 50.98,20.6z"/>
  <path class="fil2" d="M11166.43 4446.97c9.48,0 17.75,3.36 24.39,9.91 6.64,6.98 9.91,15.04 9.91,24.52 0,9.57 -3.27,17.75 -9.91,24.27 -6.64,6.98 -14.91,10.47 -24.39,10.47l-92.4 0 0 435.96c0,9.69 -3.36,17.88 -10.12,24.73 -6.86,6.76 -14.92,10.01 -24.27,10.01 -9.7,0 -17.88,-3.25 -24.52,-10.01 -6.86,-6.85 -10.35,-15.04 -10.35,-24.73l0 -435.96 -91.96 0c-9.69,0 -17.97,-3.49 -24.95,-10.47 -6.51,-6.52 -9.91,-14.7 -9.91,-24.27 0,-9.48 3.4,-17.54 9.91,-24.52 6.98,-6.55 15.26,-9.91 24.95,-9.91l253.62 0zm0 0c9.48,0 17.75,3.36 24.39,9.91 6.64,6.98 9.91,15.04 9.91,24.52 0,9.57 -3.27,17.75 -9.91,24.27 -6.64,6.98 -14.91,10.47 -24.39,10.47l-92.4 0 0 435.96c0,9.69 -3.36,17.88 -10.12,24.73 -6.86,6.76 -14.92,10.01 -24.27,10.01 -9.7,0 -17.88,-3.25 -24.52,-10.01 -6.86,-6.85 -10.35,-15.04 -10.35,-24.73l0 -435.96 -91.96 0c-9.69,0 -17.97,-3.49 -24.95,-10.47 -6.51,-6.52 -9.91,-14.7 -9.91,-24.27 0,-9.48 3.4,-17.54 9.91,-24.52 6.98,-6.55 15.26,-9.91 24.95,-9.91l253.62 0z"/>
  <path class="fil1" d="M11605.1 4917.7c9.61,0 17.76,3.36 24.52,9.91 6.76,6.85 10.25,15.04 10.25,24.52 0,9.57 -3.49,17.75 -10.25,24.73 -6.76,6.64 -14.91,10.01 -24.52,10.01l-182.25 0c-9.7,0 -17.97,-3.37 -24.83,-10.01 -6.64,-6.98 -10.03,-15.16 -10.03,-24.73l0 -462.67c0,-9.36 3.39,-17.54 10.03,-24.4 6.86,-6.64 15.13,-10 24.83,-10l182.25 0c9.61,0 17.76,3.36 24.52,10 6.76,6.86 10.25,15.04 10.25,24.4 0,9.6 -3.49,17.75 -10.25,24.42 -6.76,6.86 -14.91,10.44 -24.52,10.44l-147.91 0 0 143.38 125.71 0c9.7,0 17.85,3.36 24.83,10 6.64,6.67 9.91,14.82 9.91,24.43 0,9.57 -3.27,17.75 -9.91,24.39 -6.98,6.86 -15.13,10.44 -24.83,10.44l-125.71 0 0 180.74 147.91 0z"/>
  <path class="fil1" d="M12072.65 4846.7c11.55,0 20.91,4.79 28.1,14.49 6.89,9.35 8.49,19.48 4.82,30.6 -9.39,27.88 -26.16,50.42 -50.34,68.09 -24.3,17.88 -51.75,27.02 -82.04,27.02l-2.16 0c-38.79,0 -71.71,-13.62 -99.25,-41.07 -27.36,-27.36 -40.98,-60.46 -40.98,-99.13l0 -264.82c0,-38.35 13.62,-71.27 40.98,-98.72 27.54,-27.33 60.46,-41.07 99.25,-41.07l2.16 0c30.29,0 57.74,8.95 82.04,26.59 24.18,17.66 40.95,40.42 50.34,68.52 3.67,10.78 2.07,21.15 -4.82,30.72 -7.19,9.36 -16.55,13.96 -28.1,13.96 -16.55,0 -27.33,-7.53 -32.45,-22.45 -4.79,-14.39 -13.31,-25.94 -25.51,-34.77 -12.41,-8.92 -26.25,-13.37 -41.5,-13.37l-2.16 0c-19.83,0 -36.5,6.86 -50.46,20.78 -13.71,13.62 -20.57,30.3 -20.57,49.81l0 264.82c0,19.71 6.86,36.38 20.57,50.31 13.96,13.74 30.63,20.72 50.46,20.72l2.16 0c15.25,0 29.09,-4.7 41.5,-13.62 12.2,-8.96 20.72,-20.38 25.51,-34.55 5.12,-15.23 15.9,-22.86 32.45,-22.86z"/>
  <path class="fil1" d="M12608.32 4953.95c0,1.54 -0.22,2.84 -0.43,4.04l0 0.78c-2.2,11.08 -8.28,19.05 -18.1,23.96 -8.71,4.57 -17.42,5.22 -26.25,2.28 -9.14,-2.93 -15.9,-8.7 -20.38,-17.01l-171.9 -344.65 0 328.75c0,9.6 -3.37,17.75 -10.01,24.42 -6.85,6.73 -15.04,10.35 -24.39,10.35 -9.7,0 -17.98,-3.62 -24.74,-10.35 -6.76,-6.67 -10.13,-14.82 -10.13,-24.42l0 -475.61c0,-9.57 3.37,-17.63 10.13,-24.4 6.76,-6.97 15.04,-10.34 24.74,-10.34 10.77,0 19.82,4.45 26.89,13.28l0 0.43c0.99,0.99 1.85,2.28 2.63,4.05 0,0 0.52,0.09 0.74,0.43 0,0.34 0.12,0.65 0.46,0.65l171.88 344.8 0 -328.9c0,-9.57 3.39,-17.63 10.03,-24.4 6.64,-6.97 14.83,-10.34 24.31,-10.34 9.69,0 17.84,3.37 24.48,10.34 6.89,6.77 10.47,14.83 10.47,24.4l0 475.61 0 -1.08c0,0 -0.22,0.98 -0.43,2.93z"/>
  <path class="fil1" d="M12905.63 4536.77c-17.2,17.32 -25.82,37.92 -25.82,62.22l0 230.73c0,24.18 8.62,44.87 25.82,62.07 17.1,17.23 37.79,25.94 62.19,25.94 24.18,0 44.77,-8.71 62.1,-25.94 17.2,-17.2 25.94,-37.89 25.94,-62.07l0 -230.73c0,-24.3 -8.74,-44.9 -25.94,-62.22 -17.33,-16.99 -37.92,-25.48 -62.1,-25.48 -24.4,0 -45.09,8.49 -62.19,25.48zm-48.82 403.84c-30.7,-30.51 -46.17,-67.53 -46.17,-110.89l0 -230.73c0,-43.14 15.47,-80.2 46.17,-111.01 30.63,-30.51 67.65,-45.86 111.01,-45.86 43.48,0 80.41,15.35 110.92,45.86 30.91,30.81 46.16,67.87 46.16,111.01l0 230.73c0,43.36 -15.25,80.38 -46.16,110.89 -30.51,30.82 -67.44,46.29 -110.92,46.29 -43.36,0 -80.38,-15.47 -111.01,-46.29z"/>
  <path class="fil1" d="M13561.45 4917.7c9.6,0 17.75,3.36 24.52,9.91 6.76,6.85 10.34,15.04 10.34,24.52 0,9.57 -3.58,17.75 -10.34,24.73 -6.77,6.64 -14.92,10.01 -24.52,10.01l-199.67 0c-9.7,0 -17.88,-3.37 -24.73,-10.01 -6.77,-6.98 -10.04,-15.16 -10.04,-24.73l0 -468.97c0,-9.48 3.27,-17.66 10.04,-24.43 6.85,-6.85 15.03,-10.34 24.73,-10.34 9.36,0 17.54,3.49 24.4,10.34 6.63,6.77 10.03,14.95 10.03,24.43l0 434.54 165.24 0z"/>
  <path class="fil1" d="M13966.53 4281.3c2.93,9.05 2.16,17.75 -2.2,26.28l-37.79 72.1c-4.36,8.28 -11.24,13.96 -20.26,16.55 -9.17,3.06 -17.97,2.2 -26.71,-2.16 -8.28,-4.35 -13.83,-11.24 -16.55,-20.38 -3.06,-9.14 -2.16,-17.88 2.19,-26.25l37.67 -72.01c4.48,-8.49 11.24,-14.05 20.38,-16.77 9.05,-2.84 17.88,-2.19 26.25,2.38 8.28,4.36 14.05,11.12 17.02,20.26zm-110.58 255.47c-17.23,17.2 -25.82,37.92 -25.82,62.19l0 230.73c0,24.18 8.59,44.9 25.82,62.1 17.1,17.2 37.67,25.94 62.1,25.94 24.17,0 44.86,-8.74 62.19,-25.94 17.2,-17.2 25.81,-37.92 25.81,-62.1l0 -230.73c0,-24.27 -8.61,-44.99 -25.81,-62.19 -17.33,-16.99 -38.02,-25.48 -62.19,-25.48 -24.43,0 -45,8.49 -62.1,25.48zm-48.82 403.84c-30.82,-30.51 -46.17,-67.57 -46.17,-110.92l0 -230.73c0,-43.23 15.35,-80.17 46.17,-110.98 30.51,-30.51 67.56,-45.89 110.92,-45.89 43.44,0 80.38,15.38 110.98,45.89 30.85,30.81 46.19,67.75 46.19,110.98l0 230.73c0,43.35 -15.34,80.41 -46.19,110.92 -30.6,30.82 -67.54,46.29 -110.98,46.29 -43.36,0 -80.41,-15.47 -110.92,-46.29z"/>
  <path class="fil1" d="M14409.34 4660.35c38.48,0.21 71.15,14.05 98.38,41.5 27.11,27.02 40.64,59.81 40.64,98.26l0 46.5c0,38.69 -13.74,71.92 -41.07,99.16 -27.24,27.45 -60.25,41.16 -98.69,41.16l-2.29 0c-38.56,0 -71.7,-13.71 -99.03,-41.16 -27.45,-27.24 -41.07,-60.47 -41.07,-99.16l0 -264.7c0,-38.35 13.62,-71.36 41.07,-98.81 27.33,-27.33 60.47,-40.95 99.03,-40.95l2.29 0c30.26,0 57.62,8.92 82.02,26.59 24.3,17.54 40.94,40.39 50.33,68.4 3.7,10.9 2.07,21.12 -4.79,30.81 -7.19,9.27 -16.46,13.96 -28.13,13.96 -16.43,0 -27.45,-7.5 -32.55,-22.45 -4.69,-14.48 -13.18,-26.03 -25.5,-34.74 -12.42,-8.92 -26.03,-13.4 -41.38,-13.4l-2.29 0c-19.73,0 -36.5,6.86 -50.24,20.69 -13.83,13.74 -20.69,30.42 -20.69,49.9l0 264.7c0,19.73 6.86,36.5 20.69,50.46 13.74,13.71 30.51,20.69 50.24,20.69l2.29 0c19.48,0 36.04,-6.98 49.99,-20.69 13.71,-13.96 20.6,-30.73 20.6,-50.46l0 -46.5c0,-19.49 -6.89,-36.16 -20.6,-49.9 -13.95,-13.93 -30.51,-20.69 -49.99,-20.69 -9.39,-0.31 -17.45,-3.93 -24.09,-10.78 -6.42,-6.64 -9.69,-14.61 -9.69,-23.96 0,-9.48 3.27,-17.45 9.69,-24.09 6.64,-6.64 14.7,-10.13 24.09,-10.34l0.74 0z"/>
  <path class="fil1" d="M14760.35 4976.86c-6.64,-6.88 -9.91,-15.16 -9.91,-24.73l0 -475.61c0,-9.6 3.27,-17.66 9.91,-24.43 6.85,-6.64 15.13,-9.91 24.83,-9.91 9.38,0 17.54,3.27 24.39,9.91 6.67,6.77 10.04,14.83 10.04,24.43l0 475.61c0,9.57 -3.37,17.85 -10.04,24.73 -6.85,6.64 -15.01,10.01 -24.39,10.01 -9.7,0 -17.98,-3.37 -24.83,-10.01z"/>
  <path class="fil1" d="M15263.38 4846.7c11.64,0 20.9,4.79 28.1,14.49 6.85,9.35 8.49,19.48 4.91,30.6 -9.48,27.88 -26.25,50.42 -50.43,68.09 -24.3,17.88 -51.66,27.02 -82.05,27.02l-2.16 0c-38.78,0 -71.79,-13.62 -99.15,-41.07 -27.33,-27.36 -41.07,-60.46 -41.07,-99.13l0 -264.82c0,-38.35 13.74,-71.27 41.07,-98.72 27.36,-27.33 60.37,-41.07 99.15,-41.07l2.16 0c30.39,0 57.75,8.95 82.05,26.59 24.18,17.66 40.95,40.42 50.43,68.52 3.58,10.78 1.94,21.15 -4.91,30.72 -7.2,9.36 -16.46,13.96 -28.1,13.96 -16.55,0 -27.33,-7.53 -32.58,-22.45 -4.57,-14.39 -13.19,-25.94 -25.48,-34.77 -12.32,-8.92 -26.15,-13.37 -41.41,-13.37l-2.16 0c-19.82,0 -36.5,6.86 -50.33,20.78 -13.84,13.62 -20.72,30.3 -20.72,49.81l0 264.82c0,19.71 6.88,36.38 20.72,50.31 13.83,13.74 30.51,20.72 50.33,20.72l2.16 0c15.26,0 29.09,-4.7 41.41,-13.62 12.29,-8.96 20.91,-20.38 25.48,-34.55 5.25,-15.23 16.03,-22.86 32.58,-22.86z"/>
  <path class="fil1" d="M15705.82 4661.09l0 -79.18c0,-9.39 -1.85,-18.43 -5.53,-27.02l-0.46 -0.77c-2.72,-6.08 -6.08,-11.76 -10.35,-16.98 0.34,0.21 0,-0.22 -0.64,-1.12 -2.29,-2.37 -4.7,-4.87 -7.51,-7.38 -0.99,-0.67 -1.63,-1.32 -2.19,-1.85 -1.42,-1.2 -2.93,-2.41 -4.35,-3.27 -1.52,-0.99 -3.15,-2.07 -4.91,-2.94 -1.42,-0.77 -3.03,-1.63 -5.13,-2.62 -1.73,-0.65 -3.46,-1.42 -5.22,-2.19 -1.94,-0.74 -3.06,-1.08 -3.06,-1.08 -2.93,-1.08 -5.77,-1.86 -8.7,-2.29 -0.53,0 -1.52,-0.12 -2.94,-0.34 -3.49,-0.52 -6.54,-0.86 -9.26,-0.86l-3.37 0c-2.62,0 -5.68,0.34 -9.26,0.86 -1.42,0.22 -2.41,0.34 -2.41,0.34 -3.49,0.43 -6.3,1.21 -9.05,2.29l-3.7 1.08c-1.73,0.77 -3.24,1.54 -4.79,2.19 -2.28,0.99 -3.92,1.85 -5.22,2.62 -1.85,0.87 -3.49,1.95 -4.69,2.94 -1.51,0.86 -3.06,2.07 -4.57,3.27 0,0 -0.87,0.65 -2.07,1.85 -2.72,2.51 -5.22,5.01 -7.41,7.38 -0.31,0.25 -0.31,0.47 -0.31,0.78 -0.34,0.12 -0.68,0.34 -0.68,0.34 -4.45,5.22 -7.63,10.9 -10.13,16.98 0,-0.22 -0.21,0 -0.31,0.77 -3.83,8.59 -5.56,17.63 -5.56,27.02l0 79.18 143.78 0zm62.1 -122.01c4.69,13.96 6.98,28.23 6.98,42.83l0 370.16c0,9.69 -3.37,17.87 -10.35,24.73 -6.54,6.76 -14.7,10.01 -24.39,10.01 -9.48,0 -17.66,-3.25 -24.43,-10.01 -6.64,-6.86 -9.91,-15.04 -9.91,-24.73l0 -221.91 -143.78 0 0 221.91c0,9.69 -3.39,17.87 -10.12,24.73 -6.77,6.76 -14.95,10.01 -24.31,10.01 -9.69,0 -17.97,-3.25 -24.82,-10.01 -6.77,-6.86 -9.92,-15.04 -9.92,-24.73l0 -370.16c0,-14.6 2.07,-28.87 6.64,-42.83 0.78,-2.59 0.87,-3.27 0.31,-1.94 15.26,-45.12 45.67,-74.73 90.97,-88.78 0,0 0.65,0 1.21,-0.34 3.58,-0.99 7.5,-2.07 11.42,-2.94l1.12 0c0.74,-0.21 1.17,-0.34 1.38,-0.34 3.49,-0.77 7.11,-1.42 10.81,-1.85l2.5 -0.31c5.01,-0.34 9.48,-0.43 13.28,-0.43l2.63 0c3.92,0 8.27,0.09 13.06,0.43l2.84 0.31c3.71,0.43 7.29,1.08 10.78,1.85 0,0 0.55,0.13 1.11,0.34l1.39 0c4.04,0.87 7.84,1.95 11.55,2.94 0.21,0.34 0.43,0.34 0.77,0.34 45.33,14.05 75.59,43.66 90.97,88.78 0.22,0.21 0.31,0.52 0.31,1.2l0 0.74z"/>
  <path class="fil1" d="M16121.18 4668.07c49.35,0.21 89.68,19.82 120.93,58.48 31.93,39.22 42.58,83.99 32.23,134.54 -7.41,36.72 -26.03,67.01 -55.42,90.64 -29.43,23.31 -62.97,35.2 -100.67,35.2l-0.43 0c-34.99,0 -66.58,-10.81 -94.56,-32.27 -27.36,-20.91 -45.98,-47.93 -55.89,-80.94 -3.49,-11.64 -1.64,-22.2 5.22,-31.89 6.89,-9.48 16.24,-14.39 28.01,-14.39 17.54,0 28.65,8.27 33.32,24.82 5.46,18.53 15.81,33.66 31.06,45.43 15.56,12.1 33.1,18.18 52.84,18.18l1.51 0c20.04,0 37.92,-5.86 53.7,-17.84 16.02,-11.99 26.59,-27.58 31.71,-46.51 7.41,-28.87 2.41,-54.69 -15.13,-77.69 -17.01,-22.42 -39.43,-33.97 -67.22,-34.74 -39.99,-0.65 -73.87,-14.92 -101.75,-42.49 -28.1,-27.67 -42.15,-61.33 -42.15,-100.89l0 -10.43c0,-39.78 13.83,-73.65 41.81,-101.75 27.57,-27.88 61.02,-41.72 100.11,-41.72l2.32 0c30.81,0 58.48,8.93 83.09,27.24 24.52,18.06 41.41,41.38 51.11,70.03 3.7,11.21 2.07,21.9 -5.13,31.68 -6.85,9.7 -16.33,14.52 -28.1,14.52l-0.43 0c-16.46,0 -27.36,-7.75 -32.58,-23.32 -4.91,-14.6 -13.4,-26.49 -25.81,-35.51 -12.63,-9.48 -26.59,-14.05 -42.15,-14.05l-2.32 0c-19.92,0 -36.81,7.07 -50.64,21.46 -13.96,14.05 -21.03,31.13 -21.03,51.42l0 11.42c0,20.04 7.07,36.81 21.46,50.77 14.17,13.74 31.06,20.6 50.98,20.6z"/>
 </g>
</svg>
